<svg width="35" height="89" viewBox="0 0 35 89" fill="none" xmlns="http://www.w3.org/2000/svg">
<g clip-path="url(#clip0)">
<path d="M32.5483 17.7998C32.5483 9.34646 25.811 2.49367 17.5 2.49367C9.18904 2.49367 2.45167 9.34646 2.45167 17.7998V71.2002C2.45167 79.6535 9.18904 86.5063 17.5 86.5063C25.811 86.5063 32.5483 79.6535 32.5483 71.2002V17.7998Z" stroke="#F5F5F5" stroke-width="5"/>
<path d="M22.5083 53.3994C22.5083 50.5904 20.2697 48.3133 17.5083 48.3133C14.747 48.3133 12.5084 50.5904 12.5084 53.3994V68.6556C12.5084 71.4646 14.747 73.7417 17.5083 73.7417C20.2697 73.7417 22.5083 71.4646 22.5083 68.6556V53.3994Z" fill="#F5F5F5"/>
</g>
<defs>
<clipPath id="clip0">
<rect width="35" height="89" fill="white"/>
</clipPath>
</defs>
</svg>
